{"title":"Bully (2001) DVD RIP UNCUT","uid":9587301,"size":1426215603,"categoryP":"video","categoryS":"movies","magnet":"?xt=urn:btih:96d4197a36b2e6901ec1c57b3a76a237cc4e11e0&amp;dn=Bully+%282001%29+DVD+RIP+UNCUT+&amp;tr=udp%3A%2F%2Ftracker.openbittorrent.com%3A80&amp;tr=udp%3A%2F%2Fopen.demonii.com%3A1337&amp;tr=udp%3A%2F%2Ftracker.coppersurfer.tk%3A6969&amp;tr=udp%3A%2F%2Fexodus.desync.com%3A6969","seeders":2,"leechers":2,"uploader":"sonicx33","files":-1,"time":1391836105,"description":"Format                                   : MPEG-4\nFormat profile                           : Base Media / Version 2\nCodec ID                                 : mp42\nFile size                                : 1.33 GiB\nDuration                                 : 1h 52mn\nOverall bit rate mode                    : Variable\nOverall bit rate                         : 1 684 Kbps\nEncoded date                             : UTC 2013-12-07 14:17:00\nTagged date                              : UTC 2013-12-07 18:40:00\nWriting application                      : HandBrake 0.9.9 2013052900\n\nVideo\nID                                       : 1\nFormat                                   : AVC\nFormat/Info                              : Advanced Video Codec\nFormat profile                           : &lt;a class=&quot;__cf_email__&quot; href=&quot;/cdn-cgi/l/email-protection&quot; data-cfemail=&quot;80cde1e9eec0ccb5aeb2&quot;&gt;[email&amp;#160;protected]&lt;/a&gt;&lt;script cf-hash='f9e31' type=&quot;text/javascript&quot;&gt;\n/* &lt;![CDATA[ */!function(){try{var t=&quot;currentScript&quot;in document?document.currentScript:function(){for(var t=document.getElementsByTagName(&quot;script&quot;),e=t.length;e--;)if(t[e].getAttribute(&quot;cf-hash&quot;))return t[e]}();if(t&amp;&amp;t.previousSibling){var e,r,n,i,c=t.previousSibling,a=c.getAttribute(&quot;data-cfemail&quot;);if(a){for(e=&quot;&quot;,r=parseInt(a.substr(0,2),16),n=2;a.length-n;n+=2)i=parseInt(a.substr(n,2),16)^r,e+=String.fromCharCode(i);e=document.createTextNode(e),c.parentNode.replaceChild(e,c)}}}catch(u){}}();/* ]]&gt; */&lt;/script&gt;\nFormat settings, CABAC                   : Yes\nFormat settings, ReFrames                : 16 frames\nCodec ID                                 : avc1\nCodec ID/Info                            : Advanced Video Coding\nDuration                                 : 1h 52mn\nBit rate                                 : 1 583 Kbps\nWidth                                    : 720 pixels\nHeight                                   : 480 pixels\nDisplay aspect ratio                     : 16:9\nFrame rate mode                          : Variable\nFrame rate                               : 23.976 fps\nMinimum frame rate                       : 23.974 fps\nMaximum frame rate                       : 23.981 fps\nStandard                                 : NTSC\nColor space                              : YUV\nChroma subsampling                       : 4:2:0\nBit depth                                : 8 bits\nScan type                                : Progressive\nBits/(Pixel*Frame)                       : 0.191\nStream size                              : 1.25 GiB (94%)\nWriting library                          : x264 core 130 r2273 b3065e6\nEncoding settings                        : cabac=1 / ref=16 / deblock=1:0:0 / \nEncoded date                             : UTC 2013-12-07 14:17:00\nTagged date                              : UTC 2013-12-07 18:40:00\nColor primaries                          : BT.601 NTSC\nTransfer characteristics                 : BT.709\nMatrix coefficients                      : BT.601\n\nAudio\nID                                       : 2\nFormat                                   : AAC\nFormat/Info                              : Advanced Audio Codec\nFormat profile                           : LC\nCodec ID                                 : 40\nDuration                                 : 1h 52mn\nBit rate mode                            : Variable\nBit rate                                 : 96.0 Kbps\nMaximum bit rate                         : 210 Kbps\nChannel(s)                               : 2 channels\nChannel positions                        : Front: L R\nSampling rate                            : 48.0 KHz\nCompression mode                         : Lossy\nStream size                              : 77.2 MiB (6%)\nLanguage                                 : English\nEncoded date                             : UTC 2013-12-07 14:17:00\nTagged date                              : UTC 2013-12-07 18:40:00\n\nMenu\nID                                       : 3\nCodec ID                                 : text\nDuration                                 : 1h 52mn\nEncoded date                             : UTC 2013-12-07 14:17:00\nTagged date                              : UTC 2013-12-07 18:40:00\nBit rate mode                            : VBR\n\n &lt;a href=&quot;\nhttp://www.imdb.com/title/tt0242193/&quot; rel=&quot;nofollow&quot; target=&quot;_NEW&quot;&gt;\nhttp://www.imdb.com/title/tt0242193/&lt;/a&gt;\n\n\n\nAfter finding himself at the constant abuse of his best friend, Bobby, Marty has become fed up with his friend's twisted ways. His girlfriend, a victim of Bobby's often cruel ways, couldn't agree more and they strategize murdering Bobby, with a group of willing and unwilling participants in a small Florida town. In the midst of their plotting, they find themselves contemplating with the possible aftermath of what could happen.\n\n\nDirected By: Larry Clark\n\nWritten By: David McKenna\n\n\n\nRuntime 1 Hour 52 Minutes ","torrent":{"xt":"urn:btih:96d4197a36b2e6901ec1c57b3a76a237cc4e11e0","amp;dn":"Bully+%282001%29+DVD+RIP+UNCUT+","amp;tr":["udp%3A%2F%2Ftracker.openbittorrent.com%3A80","udp%3A%2F%2Fopen.demonii.com%3A1337","udp%3A%2F%2Ftracker.coppersurfer.tk%3A6969","udp%3A%2F%2Fexodus.desync.com%3A6969"],"infoHash":"96d4197a36b2e6901ec1c57b3a76a237cc4e11e0","infoHashBuffer":{"type":"Buffer","data":[150,212,25,122,54,178,230,144,30,193,197,123,58,118,162,55,204,78,17,224]},"announce":[],"urlList":[]}}